<?xml version="1.0" encoding="UTF-8"?>
<svg version="1.1" xmlns="http://www.w3.org/2000/svg" width="512" height="512">
<path d="M0 0 C1.31871094 0.11021484 1.31871094 0.11021484 2.6640625 0.22265625 C10.34424755 2.24783473 15.64363556 8.8729054 21.0625 14.3125 C21.91650391 15.15039062 22.77050781 15.98828125 23.65039062 16.8515625 C32.80330474 25.99728658 32.80330474 25.99728658 33.7734375 32.68359375 C33.72236613 38.54828883 33.14639868 42.74112748 30.375 47.9375 C35.43515778 48.63838229 40.26147054 48.99262006 45.37109375 48.859375 C46.42490234 48.83359375 47.47871094 48.8078125 48.56445312 48.78125 C50.72642251 48.718848 52.8879973 48.64076747 55.04882812 48.546875 C63.3466552 48.38466946 69.78627228 50.04092674 76.21044922 55.49609375 C83.00279982 62.66729231 83.95450694 72.33385252 85.14042664 81.74528503 C85.3709087 83.48772152 85.3709087 83.48772152 85.60604697 85.26535875 C86.02763791 88.46664257 86.4412096 91.6688409 86.85128748 94.87161601 C87.29670017 98.33477367 87.75251947 101.79656388 88.20697021 105.25854492 C89.09452146 112.03289008 89.97236737 118.80845855 90.84670218 125.58452084 C91.55806334 131.09614079 92.27296286 136.60729114 92.99036598 142.11812782 C93.09264788 142.90384425 93.19492977 143.68956067 93.30031112 144.49908668 C93.50814741 146.09553869 93.71599184 147.69198965 93.92384432 149.28843955 C95.87103748 164.24745028 97.80721215 179.20787122 99.73959426 194.1688014 C101.39507009 206.98385362 103.05992631 219.79765841 104.73168945 232.6105957 C106.675696 247.51013086 108.61385451 262.4104077 110.54279166 277.31190187 C110.74888086 278.90386665 110.95497738 280.49583048 111.16108131 282.08779335 C111.31316199 283.2625132 111.31316199 283.2625132 111.468315 284.46096477 C112.18040366 289.95825056 112.8966122 295.45499039 113.61444664 300.95152855 C114.49056553 307.6609552 115.36021843 314.37118328 116.22182187 321.08248999 C116.66091902 324.50151155 117.10276087 327.92011373 117.55248451 331.3377552 C121.49197831 361.37330445 122.15816326 388.26891148 103.34765625 413.67578125 C83.19306824 439.28521382 57.14783882 445.73761579 26.40258789 449.67724609 C24.42435355 449.93508745 22.44618558 450.19343851 20.46807861 450.45225525 C15.12621424 451.14972458 9.78345303 451.84008434 4.44049382 452.52910948 C-1.20187641 453.25799131 -6.84338749 453.99346519 -12.48500061 454.72817993 C-23.19684172 456.12218132 -33.90944431 457.51023888 -44.6223312 458.89617789 C-56.66368552 460.45429267 -68.70414051 462.01930121 -80.74453723 463.58479571 C-95.49774077 465.50280129 -110.25118868 467.41892684 -125.00511169 469.33139038 C-126.04666292 469.46642216 -127.08821415 469.60145393 -128.16132754 469.74057758 C-133.24029644 470.39874891 -138.31944309 471.05549407 -143.3989706 471.70934105 C-151.96696979 472.81276262 -160.53408626 473.9204089 -169.0960905 475.06956947 C-172.67367699 475.54905439 -176.2520577 476.02244041 -179.83054459 476.49515271 C-181.47504723 476.71409716 -183.11916216 476.93597953 -184.76281726 477.16119838 C-212.6995928 480.98732194 -212.6995928 480.98732194 -222.625 473.9375 C-230.13598549 467.34955128 -231.26662826 458.37455623 -232.44921875 449.01953125 C-232.60034622 447.88472824 -232.75147369 446.74992523 -232.90718079 445.58073425 C-233.22351661 443.19189374 -233.53504474 440.80241222 -233.84204102 438.41235352 C-234.3124064 434.75072863 -234.79646683 431.09112192 -235.28320312 427.43164062 C-235.58933483 425.10687514 -235.89469994 422.78200855 -236.19921875 420.45703125 C-236.34292404 419.36219925 -236.48662933 418.26736725 -236.63468933 417.13935852 C-236.76515152 416.12117538 -236.89561371 415.10299225 -237.0300293 414.05395508 C-237.14533493 413.16017654 -237.26064056 412.26639801 -237.37944031 411.34553528 C-237.625 408.9375 -237.625 408.9375 -237.625 404.9375 C-238.59469727 404.79763672 -239.56439453 404.65777344 -240.56347656 404.51367188 C-252.16155252 402.83825652 -263.755853 401.13768047 -275.3480835 399.42230225 C-277.57950808 399.09217493 -279.81099668 398.76248008 -282.0425415 398.4331665 C-289.10254713 397.39067435 -296.16086304 396.33764982 -303.21740723 395.27197266 C-305.52204094 394.92530879 -307.82713598 394.58169745 -310.13269043 394.24121094 C-313.39316447 393.75899908 -316.65176261 393.26558056 -319.91015625 392.76953125 C-320.87629349 392.62904861 -321.84243073 392.48856598 -322.83784485 392.34382629 C-331.71386845 390.97001733 -339.46737212 388.82966724 -345.625 381.9375 C-352.6958831 371.97398291 -350.4505746 360.39665792 -348.65673828 349.06494141 C-348.42987977 347.57277421 -348.20411057 346.08044107 -347.97933102 344.58795929 C-347.36235725 340.51239614 -346.73014115 336.43932549 -346.09536099 332.36650324 C-345.41413476 327.97748474 -344.74741491 323.58626092 -344.07896423 319.19528198 C-342.77251841 310.62818656 -341.45327309 302.06311088 -340.12957722 293.49866569 C-338.59227457 283.54917725 -337.06693053 273.59786821 -335.54285347 263.64634657 C-334.7655014 258.57060282 -333.98776907 253.49491736 -333.20991516 248.41925049 C-333.05451993 247.4052273 -332.8991247 246.39120411 -332.73902053 245.34645295 C-331.62527389 238.08063081 -330.50876153 230.81523651 -329.39128113 223.54998779 C-325.45605418 197.95847654 -321.56502209 172.36070592 -317.71914887 146.75561512 C-316.70604138 140.01074121 -315.69080962 133.26619037 -314.6739502 126.5218811 C-314.53299006 125.58691099 -314.39202993 124.65194087 -314.24679828 123.68863833 C-313.68462128 119.96012566 -313.12235945 116.23162582 -312.55987978 112.50315881 C-311.05798989 102.54754943 -309.55960063 92.59144682 -308.0725708 82.63360596 C-306.9274289 74.96538111 -305.77403261 67.29845417 -304.61001903 59.63307035 C-304.01898312 55.73899469 -303.4319462 51.84442788 -302.85581779 47.9481163 C-302.32908815 44.38616847 -301.7910867 40.82610918 -301.24429297 37.26718783 C-300.95775687 35.38296159 -300.6831634 33.49693093 -300.4091053 31.61084938 C-298.84978416 21.58991146 -296.93728803 12.77373185 -288.6875 6.34375 C-277.43207827 -1.33040118 -263.95929191 2.40673553 -251.33789062 4.3684082 C-249.61352973 4.63024658 -247.88905946 4.8913655 -246.16448975 5.15182495 C-241.5058505 5.85749435 -236.84880306 6.57319556 -232.19198799 7.2907908 C-227.29306369 8.04394064 -222.39273261 8.78782553 -217.49255371 9.53276062 C-208.20368213 10.94631712 -198.91611585 12.368268 -189.62898397 13.79320449 C-179.12964918 15.4036792 -168.6288184 17.00429098 -158.12788105 18.60427725 C-142.58848416 20.97232101 -127.04964979 23.34405558 -111.5122757 25.72533798 C-109.84643445 25.98061674 -108.18057259 26.23576098 -106.51468658 26.49074745 C-104.20751675 26.84395431 -101.90044804 27.19781627 -99.59338379 27.55171204 C-98.49685155 27.719225 -98.49685155 27.719225 -97.37816715 27.89012206 C-93.40689905 28.49936344 -89.43964422 29.1283013 -85.47502136 29.77947044 C-84.61950731 29.91867037 -83.76399325 30.0578703 -82.88255453 30.2012884 C-81.24606558 30.46828883 -79.61018599 30.73906286 -77.97506952 31.01434356 C-70.58682818 32.51672481 -70.58682818 32.51672481 -63.60546875 30.765625 C-63.01378906 30.24484375 -62.42210937 29.7240625 -61.8125 29.1875 C-56.30584636 24.71664685 -49.07541393 20.49915554 -41.76953125 21.21875 C-36.51378675 21.56379302 -32.67636248 21.49882751 -28.43994141 18.27441406 C-25.34263623 15.39045923 -22.46271825 12.37036409 -19.66333008 9.19726562 C-14.02146969 2.85331007 -8.97349492 -0.93970227 0 0 Z " fill="#FED63F" transform="translate(373.625,16.0625)"/>
<path d="M0 0 C1.71462608 0.26021434 3.42936124 0.5197107 5.14419556 0.77854919 C9.77844726 1.48013691 14.41110506 2.19177156 19.04352808 2.90532017 C23.92363654 3.65528663 28.80514247 4.39604705 33.68649292 5.13787842 C41.89663407 6.38687928 50.10585873 7.64175426 58.31445312 8.90087891 C69.80644428 10.66364332 81.29997105 12.41621896 92.79386735 14.16651201 C161.23504563 24.59117069 161.23504563 24.59117069 185.80810547 28.58496094 C185.31826172 29.34421875 184.82841797 30.10347656 184.32373047 30.88574219 C182.75002384 33.68840013 182.28373865 35.38856674 182.91357422 38.56542969 C186.09363196 45.74486135 193.39428456 51.36049798 199.37451172 56.20996094 C199.84759766 56.66371094 200.32068359 57.11746094 200.80810547 57.58496094 C200.80810547 58.24496094 200.80810547 58.90496094 200.80810547 59.58496094 C199.72319824 59.71547852 198.63829102 59.84599609 197.52050781 59.98046875 C193.32642827 60.48555743 189.13266122 60.99320546 184.93896484 61.50146484 C183.155515 61.71728629 181.37199099 61.93249616 179.58837891 62.14697266 C167.30710262 63.62436678 155.04285605 65.20838674 142.78320312 66.8553009 C130.61643906 68.48713152 118.44309733 70.06715237 106.26904297 71.64355469 C104.13882196 71.91960757 102.00860348 72.19567992 99.87838745 72.47177124 C91.11927344 73.60679614 82.36008334 74.74122837 73.60058594 75.87329102 C61.93471217 77.38142434 50.26993659 78.89732327 38.60763168 80.43283653 C32.92192649 81.18048529 27.23471148 81.91426847 21.54543877 82.63424969 C18.19111629 83.06137581 14.83839832 83.50017981 11.48601151 83.94221687 C9.96162327 84.14069903 8.4365811 84.33423582 6.9108696 84.52227592 C-6.33737864 86.00245712 -6.33737864 86.00245712 -17.00439453 93.45996094 C-17.72626953 94.49121094 -18.44814453 95.52246094 -19.19189453 96.58496094 C-19.79001953 97.43058594 -20.38814453 98.27621094 -21.00439453 99.14746094 C-24.37217533 108.8963001 -21.80100221 120.63732044 -20.50439453 130.64746094 C-20.32354709 132.09011574 -20.14313855 133.53282562 -19.96313477 134.97558594 C-18.56193055 146.1052292 -17.01041923 157.21382479 -15.43789673 168.32034302 C-13.70670322 180.55860419 -12.15898409 192.81240537 -10.69189453 205.08496094 C-9.06754277 218.67166081 -7.306667 232.22855581 -5.38040161 245.77563477 C-3.5168319 258.90995568 -1.88785653 272.06615468 -0.31201172 285.23779297 C0.94243742 295.70642351 2.26566533 306.15397529 3.80810547 316.58496094 C5.78247233 329.94114982 7.40335091 343.33445228 9.01196289 356.73852539 C9.2199871 358.47119921 9.42807526 360.20386535 9.63623047 361.93652344 C9.73696365 362.77521469 9.83769684 363.61390594 9.94148254 364.47801208 C10.88757285 372.31666573 11.90604492 380.14501247 12.99584961 387.96508789 C13.10533936 388.77163818 13.2148291 389.57818848 13.32763672 390.40917969 C13.42149658 391.08037842 13.51535645 391.75157715 13.61206055 392.44311523 C13.86100141 395.16286393 13.83802943 397.85555532 13.80810547 400.58496094 C1.23016194 398.77079427 -11.34376682 396.93000759 -23.91497803 395.06976318 C-26.14640261 394.73963587 -28.37789121 394.40994101 -30.60943604 394.08062744 C-37.66944166 393.03813529 -44.72775757 391.98511076 -51.78430176 390.91943359 C-54.08893547 390.57276973 -56.39403051 390.22915839 -58.69958496 389.88867188 C-61.960059 389.40646002 -65.21865714 388.9130415 -68.47705078 388.41699219 C-69.44318802 388.27650955 -70.40932526 388.13602692 -71.40473938 387.99128723 C-80.28076298 386.61747827 -88.03426666 384.47712818 -94.19189453 377.58496094 C-101.26277763 367.62144385 -99.01746913 356.04411886 -97.22363281 344.71240234 C-96.9967743 343.22023515 -96.7710051 341.72790201 -96.54622555 340.23542023 C-95.92925178 336.15985708 -95.29703568 332.08678643 -94.66225553 328.01396418 C-93.98102929 323.62494568 -93.31430944 319.23372186 -92.64585876 314.84274292 C-91.33941294 306.2756475 -90.02016762 297.71057181 -88.69647175 289.14612663 C-87.1591691 279.19663819 -85.63382506 269.24532915 -84.10974801 259.29380751 C-83.33239593 254.21806375 -82.5546636 249.1423783 -81.77680969 244.06671143 C-81.62141446 243.05268824 -81.46601923 242.03866505 -81.30591506 240.99391389 C-80.19216842 233.72809175 -79.07565606 226.46269745 -77.95817566 219.19744873 C-74.02294871 193.60593747 -70.13191662 168.00816686 -66.28604341 142.40307605 C-65.27293591 135.65820214 -64.25770415 128.9136513 -63.24084473 122.16934204 C-63.09988459 121.23437193 -62.95892446 120.29940181 -62.81369281 119.33609927 C-62.25151581 115.6075866 -61.68925398 111.87908676 -61.12677431 108.15061975 C-59.62488443 98.19501037 -58.12649516 88.23890776 -56.63946533 78.28106689 C-55.49432343 70.61284205 -54.34092714 62.94591511 -53.17691356 55.28053129 C-52.58587765 51.38645563 -51.99884073 47.49188882 -51.42271233 43.59557724 C-50.89598268 40.03362941 -50.35798123 36.47357012 -49.81118751 32.91464877 C-49.5246514 31.03042253 -49.25005793 29.14439187 -48.97599983 27.25831032 C-47.41667869 17.2373724 -45.50418256 8.42119279 -37.25439453 1.99121094 C-26.02309793 -5.66649129 -12.5960008 -1.95688677 0 0 Z " fill="#29B6F5" transform="translate(122.19189453125,20.4150390625)"/>
<path d="M0 0 C0.72394078 5.29631991 1.43542413 10.59412393 2.13623047 15.89355469 C2.37546393 17.68989294 2.61788664 19.48580984 2.86376953 21.28125 C6.66825239 49.10832462 5.22857682 74.43115154 -12.02734375 97.73828125 C-31.01683576 121.86728428 -55.16604691 129.45428948 -84.625 133.1875 C-85.9531697 133.36620452 -87.28129487 133.54524036 -88.609375 133.72460938 C-96.45522756 134.73458741 -104.09075469 135.24177946 -112 135 C-111.45846385 129.00355647 -110.74171914 123.06283447 -109.84472656 117.10961914 C-108.18679326 105.97621933 -106.83352136 94.85550462 -108.5 83.6328125 C-111.18854746 64.09883489 -107.29719543 47.55422659 -96.19140625 31.36328125 C-86.08019164 18.9036555 -69.5633946 11.45588731 -53.87109375 9.77148438 C-51.51881424 9.56898379 -49.16586007 9.37701506 -46.8125 9.1875 C-32.9625346 8.04076501 -19.23458611 4.76926585 -5.92578125 0.8125 C-3 0 -3 0 0 0 Z " fill="#F9C112" transform="translate(489,332)"/>
<path d="M0 0 C1.31871094 0.11021484 1.31871094 0.11021484 2.6640625 0.22265625 C10.34424755 2.24783473 15.64363556 8.8729054 21.0625 14.3125 C21.91650391 15.15039062 22.77050781 15.98828125 23.65039062 16.8515625 C32.80330474 25.99728658 32.80330474 25.99728658 33.7734375 32.68359375 C33.71749425 39.10774381 33.56878385 44.74371615 28.74609375 49.56640625 C25.79594954 52.13511767 22.79551385 54.61275281 19.69921875 57.00390625 C13.73864279 62.10188077 11.60566001 65.85623882 11 73.5 C10.90070561 74.9789722 10.80427357 76.45813982 10.7109375 77.9375 C10.15738318 86.38607378 5.63757628 92.5851259 0.375 98.9375 C-0.264375 99.7625 -0.90375 100.5875 -1.5625 101.4375 C-4.73229294 103.74280396 -6.80806168 103.52978353 -10.625 102.9375 C-15.16422796 99.91134802 -18.37527063 95.99691598 -21.890625 91.859375 C-23.46461995 90.11521844 -25.04605793 88.65427532 -26.875 87.1875 C-29.26947731 85.2283822 -30.92201004 83.49198495 -32.625 80.9375 C-36.42859752 81.50346901 -38.14587358 83.09751308 -40.81103516 85.79882812 C-42.03217514 87.02514954 -42.03217514 87.02514954 -43.27798462 88.27624512 C-44.14789032 89.16477173 -45.01779602 90.05329834 -45.9140625 90.96875 C-46.8136972 91.87500122 -47.71333191 92.78125244 -48.64022827 93.71496582 C-51.02856825 96.12276533 -53.41047955 98.53656327 -55.78912354 100.95391846 C-59.14602916 104.36299742 -62.51307555 107.76203904 -65.88119507 111.16003418 C-67.67393461 112.96980797 -69.46358592 114.78264693 -71.24990845 116.59875488 C-72.46159195 117.82507629 -72.46159195 117.82507629 -73.69775391 119.07617188 C-74.40960846 119.79929565 -75.12146301 120.52241943 -75.85488892 121.26745605 C-78.13063429 123.41455 -79.32209435 123.89038134 -82.4375 124.375 C-85.625 123.9375 -85.625 123.9375 -88.5 121.25 C-90.71328262 117.79988298 -91.20206374 116.85879782 -90.625 112.9375 C-88.99928284 110.72396851 -88.99928284 110.72396851 -86.69360352 108.47021484 C-85.83593887 107.61938324 -84.97827423 106.76855164 -84.09461975 105.89193726 C-82.68846657 104.53390488 -82.68846657 104.53390488 -81.25390625 103.1484375 C-80.29100261 102.19994563 -79.32934387 101.25018844 -78.36888123 100.29922485 C-75.83981123 97.80055386 -73.29698246 95.31639678 -70.75012207 92.83587646 C-66.67388861 88.86201852 -62.61691719 84.86857997 -58.56370354 80.87126541 C-57.14564613 79.4773919 -55.72002433 78.09122764 -54.29432678 76.70516968 C-53.43350998 75.8606424 -52.57269318 75.01611511 -51.68579102 74.14599609 C-50.54328636 73.03277481 -50.54328636 73.03277481 -49.37770081 71.89706421 C-47.41219692 69.96035197 -47.41219692 69.96035197 -46.625 66.9375 C-47.615 66.4425 -47.615 66.4425 -48.625 65.9375 C-48.625 65.2775 -48.625 64.6175 -48.625 63.9375 C-49.285 63.9375 -49.945 63.9375 -50.625 63.9375 C-50.625 63.2775 -50.625 62.6175 -50.625 61.9375 C-51.15996094 61.72738281 -51.69492187 61.51726562 -52.24609375 61.30078125 C-55.5480445 59.40853033 -58.03763028 56.81388621 -60.6875 54.125 C-61.21666016 53.60357422 -61.74582031 53.08214844 -62.29101562 52.54492188 C-69.625 45.17412955 -69.625 45.17412955 -69.625 39.5 C-67.54294925 32.08269422 -62.67089915 28.88240217 -56.21875 25.2578125 C-51.36781815 22.78851285 -47.08740005 20.77813147 -41.546875 21.13671875 C-36.3431309 21.40403437 -32.65561254 21.49048314 -28.46191406 18.28320312 C-25.35832186 15.39519466 -22.46704962 12.37496619 -19.66210938 9.19677734 C-14.02185214 2.85216652 -8.97233954 -0.93958128 0 0 Z " fill="#E43935" transform="translate(373.625,16.0625)"/>
<path d="M0 0 C2.125 1.9375 2.125 1.9375 3.125 5.3125 C3.125 9.45328514 3.01329537 10.96425477 0.125 13.9375 C-8.20092341 16.22216228 -16.83398579 17.15038405 -25.375 18.3125 C-26.98242231 18.53385103 -28.58984417 18.75520526 -30.19726562 18.9765625 C-41.2547266 20.48964534 -52.32500979 21.86832864 -63.40820312 23.17770386 C-74.83164358 24.52942991 -86.21980975 26.07624685 -97.60864258 27.69186401 C-110.01360833 29.44721051 -122.43532695 31.01183144 -134.875 32.5 C-146.22827386 33.85824662 -157.56275472 35.26468143 -168.875 36.9375 C-181.05904549 38.73923759 -193.27156523 40.23073199 -205.5005188 41.68783569 C-215.06398373 42.82875707 -224.61669679 44.01126123 -234.15234375 45.3671875 C-234.97344635 45.4837117 -235.79454895 45.6002359 -236.64053345 45.72029114 C-240.52185753 46.27357142 -244.40140831 46.83696683 -248.27929688 47.41381836 C-267.79807029 50.27275223 -267.79807029 50.27275223 -271.61767578 47.81713867 C-274.06361734 45.26993728 -274.86000441 43.31238975 -275 39.8125 C-273.55831203 36.12818629 -272.20218084 35.07928737 -268.875 32.9375 C-265.99682977 32.10452225 -263.10432406 31.75644133 -260.1328125 31.41015625 C-259.27066635 31.29640152 -258.4085202 31.18264679 -257.52024841 31.06544495 C-254.68192526 30.6947713 -251.8412571 30.34740442 -249 30 C-246.99191489 29.74220792 -244.98402272 29.48290879 -242.97631836 29.22216797 C-237.88768989 28.56483312 -232.79696294 27.92570215 -227.7053833 27.29168701 C-223.61336228 26.77962184 -219.52338649 26.25217837 -215.43359375 25.72265625 C-210.89440604 25.13594134 -206.35502247 24.55103553 -201.81445312 23.97509766 C-191.55112196 22.67282232 -181.2921091 21.33992039 -171.03515625 19.98828125 C-169.72899857 19.81618134 -168.42284088 19.64408142 -167.07710266 19.46676636 C-164.39806515 19.11371434 -161.71903564 18.76060173 -159.04000854 18.4074707 C-157.69333952 18.22997678 -156.34667 18.05248655 -155 17.875 C-154.33634052 17.78752502 -153.67268105 17.70005005 -152.98891068 17.60992432 C-135.88653736 15.35630823 -118.78366227 13.12371038 -101.64892578 11.12866211 C-96.30972203 10.50277823 -90.99405289 9.82166749 -85.68359375 8.984375 C-77.29160662 7.66211608 -68.8654616 6.62484551 -60.4375 5.5625 C-56.98031389 5.12491228 -53.5233018 4.68597079 -50.06640625 4.24609375 C-49.20689362 4.13677017 -48.34738098 4.02744659 -47.46182251 3.91481018 C-41.93843422 3.20929412 -36.41917533 2.47765431 -30.90234375 1.72265625 C-30.21169327 1.62853455 -29.52104279 1.53441284 -28.8094635 1.43743896 C-25.59812919 0.99937551 -22.38757907 0.55656859 -19.17797852 0.10595703 C-4.97426629 -1.8383158 -4.97426629 -1.8383158 0 0 Z " fill="#FFA101" transform="translate(433.875,244.0625)"/>
<path d="M0 0 C1.03326416 -0.04278076 2.06652832 -0.08556152 3.13110352 -0.12963867 C5.87109375 0.41796875 5.87109375 0.41796875 8.24194336 2.7175293 C9.87109375 5.41796875 9.87109375 5.41796875 9.80859375 9.04296875 C8.86802225 12.42902616 8.50781174 13.32374964 5.87109375 15.41796875 C-1.28867437 17.85664756 -9.45281078 18.13770617 -16.92358398 18.99191284 C-29.51840165 20.436193 -42.07810404 22.07126399 -54.62890625 23.85546875 C-67.77815121 25.72193412 -80.94196022 27.4029033 -94.12890625 28.98046875 C-105.48218011 30.33871537 -116.81666097 31.74515018 -128.12890625 33.41796875 C-140.32085165 35.22087455 -152.54146957 36.70851563 -164.77758789 38.17233276 C-177.08113287 39.64708633 -189.35986842 41.24239989 -201.62890625 42.98046875 C-212.73892509 44.54829626 -223.85210902 46.07754082 -234.98657227 47.46286011 C-236.38582038 47.63764653 -237.78476479 47.81488667 -239.18334961 47.99490356 C-262.06652669 50.93038042 -262.06652669 50.93038042 -266.94140625 47.35546875 C-268.49302177 43.51726195 -268.29975975 41.3695993 -267.12890625 37.41796875 C-260.30250828 31.1668551 -248.43718832 31.73217607 -239.65353394 30.64501953 C-235.39949185 30.11797892 -231.1471513 29.5774358 -226.89453125 29.0390625 C-225.93175766 28.91747772 -224.96898407 28.79589294 -223.97703552 28.67062378 C-209.92858685 26.89270909 -195.88846315 25.05004871 -181.84727859 23.21583557 C-178.80247588 22.8182045 -175.75761314 22.42103418 -172.71275043 22.02386284 C-159.60676026 20.31421481 -146.50083014 18.60423534 -133.3984375 16.8671875 C-132.56355301 16.75653961 -131.72866852 16.64589172 -130.8684845 16.53189087 C-130.0694017 16.42597626 -129.27031891 16.32006165 -128.44702148 16.2109375 C-126.92431691 16.00911081 -125.40161184 15.80728778 -123.87890625 15.60546875 C-122.77447678 15.45899902 -122.77447678 15.45899902 -121.6477356 15.30957031 C-110.59982104 13.8467148 -99.54140102 12.49202257 -88.47503662 11.17684937 C-77.63258338 9.88461359 -66.81673868 8.43730826 -56.00390625 6.91796875 C-54.49586147 6.70670246 -52.98780488 6.49552038 -51.47973633 6.28442383 C-50.73777512 6.18054855 -49.9958139 6.07667328 -49.23136902 5.96965027 C-30.68184601 3.37342239 -30.68184601 3.37342239 -23.17462158 2.37207031 C-21.26973609 2.11599855 -19.36603602 1.85115502 -17.46240234 1.5859375 C-11.65223755 0.81839131 -5.85768867 0.2324156 0 0 Z " fill="#FFA101" transform="translate(420.12890625,187.58203125)"/>
<path d="M0 0 C1.91711763 3.39852671 1.92361638 5.59718535 1.375 9.4375 C-0.76134948 12.87423611 -2.4451301 13.3897103 -6.359375 14.4296875 C-12.30296138 15.67242116 -18.31541473 16.32634226 -24.34423828 17.01144409 C-36.96501686 18.44975506 -49.54946744 20.08667965 -62.125 21.875 C-75.97374637 23.84015135 -89.84013455 25.58853317 -103.72851562 27.24871826 C-116.62896136 28.79373079 -129.49908239 30.49294208 -142.36279297 32.31738281 C-153.61361053 33.91089918 -164.87433313 35.34584691 -176.15893555 36.67752075 C-187.00174597 37.96033075 -197.81414677 39.40973436 -208.625 40.9375 C-219.9043894 42.52558995 -231.18703315 44.07705312 -242.49072266 45.48339844 C-243.88655283 45.65775746 -245.28207835 45.83457754 -246.67724609 46.01416016 C-265.87630071 48.47702637 -265.87630071 48.47702637 -271.625 47.4375 C-274.75338353 44.97163295 -275.52539463 43.98532953 -276.25 40 C-275.55375446 36.03140044 -274.49850988 34.94056124 -271.38320732 32.51464844 C-268.50070574 30.74871217 -265.73033413 30.43296688 -262.40258789 30.03125 C-261.70357864 29.94101562 -261.0045694 29.85078125 -260.28437805 29.7578125 C-257.97411643 29.46456633 -255.66147559 29.2010701 -253.34765625 28.9375 C-251.70065279 28.73427052 -250.05388145 28.52915218 -248.40733337 28.32226562 C-244.04978699 27.7797546 -239.68963493 27.26215322 -235.32843018 26.75 C-231.04599729 26.24326177 -226.76625747 25.7148959 -222.48632812 25.1875 C-216.50871149 24.45279761 -210.53032475 23.72505925 -204.55081558 23.00592232 C-180.16141303 20.0707151 -155.8043135 16.86893817 -131.44869995 13.66711426 C-103.25987542 9.96304961 -103.25987542 9.96304961 -89.31494141 8.37451172 C-84.67936391 7.83967128 -80.07429178 7.2088152 -75.46484375 6.48046875 C-67.91563518 5.2975617 -60.33736078 4.3945609 -52.75 3.5 C-49.83444175 3.15395478 -46.91909752 2.80615425 -44.00390625 2.45703125 C-43.28732346 2.37125824 -42.57074066 2.28548523 -41.83244324 2.19711304 C-37.45498954 1.66926674 -33.08376558 1.10692389 -28.71484375 0.51171875 C-27.68536621 0.3717749 -26.65588867 0.23183105 -25.59521484 0.08764648 C-23.73146218 -0.16883468 -21.86842003 -0.43056625 -20.00634766 -0.69897461 C-4.70418467 -2.80010992 -4.70418467 -2.80010992 0 0 Z " fill="#FFA101" transform="translate(442.625,300.5625)"/>
<path d="M0 0 C2.625 2.875 2.625 2.875 3.3125 5.875 C2.38057395 9.94158642 0.8570167 11.25639931 -2.375 13.875 C-5.2844416 14.66809689 -7.79042912 15.16718195 -10.75 15.51171875 C-11.57943115 15.62513107 -12.4088623 15.7385434 -13.26342773 15.85539246 C-15.96488103 16.21793729 -18.66898834 16.54836079 -21.375 16.875 C-23.19149655 17.10557229 -25.00790251 17.33685926 -26.82421875 17.56884766 C-31.6425746 18.1752383 -36.4640403 18.75239649 -41.28686523 19.32202148 C-58.17745493 21.32101056 -75.03778965 23.46804443 -91.875 25.875 C-109.59670564 28.40554271 -127.34557274 30.64861449 -145.11914062 32.78320312 C-146.08303711 32.89914825 -147.04693359 33.01509338 -148.04003906 33.134552 C-149.94809051 33.36358203 -151.85629239 33.5913626 -153.76464844 33.81784058 C-158.74846714 34.41451228 -163.7227205 35.05392742 -168.69335938 35.75244141 C-169.73099426 35.89603592 -170.76862915 36.03963043 -171.83770752 36.18757629 C-173.81474527 36.46325842 -175.79072442 36.74668895 -177.76531982 37.03935242 C-189.18814753 38.62262878 -189.18814753 38.62262878 -194.3125 35.8125 C-196.02773412 32.68472014 -196.20694701 29.28794798 -195.375 25.875 C-192.27323813 21.98168371 -189.87465054 21.24944522 -185.0078125 20.63671875 C-184.36423798 20.55080978 -183.72066345 20.46490082 -183.05758667 20.37638855 C-180.87348829 20.08894807 -178.68709515 19.82609602 -176.5 19.5625 C-174.88911895 19.35525772 -173.27844749 19.14638095 -171.66796875 18.93603516 C-168.12384826 18.47612478 -164.57860551 18.02662672 -161.03222656 17.58447266 C-155.32868199 16.87223972 -149.62898257 16.1320991 -143.9296875 15.38671875 C-136.38225282 14.40112572 -128.83411276 13.42131832 -121.28497314 12.4488678 C-96.84549175 9.30016775 -72.41440969 6.08709383 -47.98214912 2.88294983 C-44.38493322 2.41123958 -40.78769602 1.93969185 -37.19045639 1.46816254 C-34.69669729 1.14118887 -32.20297669 0.81392283 -29.70925903 0.4866333 C-28.18524331 0.28681223 -26.66122607 0.08700281 -25.13720703 -0.11279297 C-24.12923065 -0.24521487 -24.12923065 -0.24521487 -23.10089111 -0.38031197 C-4.47884742 -2.82001504 -4.47884742 -2.82001504 0 0 Z " fill="#FFA101" transform="translate(380.375,139.125)"/>
<path d="M0 0 C1.875 2.9375 1.875 2.9375 1.9375 6.5 C0.75570197 10.32346422 0.00763754 11.52102917 -3.125 13.9375 C-5.81876927 14.58360359 -8.22552428 14.99831461 -10.95703125 15.28125 C-11.73329865 15.37581482 -12.50956604 15.47037964 -13.30935669 15.56781006 C-15.85045657 15.87379665 -18.39361362 16.15570762 -20.9375 16.4375 C-22.70080503 16.64509434 -24.46390701 16.85442039 -26.22680664 17.06542969 C-29.80506699 17.49250546 -33.38412249 17.91173591 -36.96386719 18.32617188 C-42.3550035 18.95665263 -47.73413645 19.66373394 -53.1131897 20.38905334 C-59.77797023 21.2876884 -66.44856204 22.13033312 -73.125 22.9375 C-74.04990234 23.05174316 -74.97480469 23.16598633 -75.92773438 23.28369141 C-78.22097343 23.55460577 -80.51317648 23.78808078 -82.8125 24 C-83.97136719 24.11472656 -85.13023437 24.22945313 -86.32421875 24.34765625 C-89.125 23.9375 -89.125 23.9375 -91.484375 21.62109375 C-93.5017958 18.32116973 -93.83779431 16.73906963 -93.125 12.9375 C-90.05948524 9.09978373 -87.68368162 7.38549902 -82.77981567 6.68078613 C-82.10127533 6.60525513 -81.42273499 6.52972412 -80.72363281 6.4519043 C-79.99608795 6.35363846 -79.26854309 6.25537262 -78.51895142 6.15412903 C-76.12418247 5.8360272 -73.72682309 5.54855297 -71.328125 5.26171875 C-69.65267345 5.04636424 -67.97744335 4.8292805 -66.3024292 4.61054993 C-62.79361041 4.15670246 -59.28344072 3.71672545 -55.77148438 3.2878418 C-51.28938051 2.7403899 -46.81065587 2.1697317 -42.33263016 1.58995342 C-38.04045713 1.03515197 -33.74688177 0.49160443 -29.453125 -0.05078125 C-28.64314308 -0.15393457 -27.83316116 -0.2570879 -26.99863434 -0.36336708 C-4.80186115 -3.16922836 -4.80186115 -3.16922836 0 0 Z " fill="#FFA101" transform="translate(267.125,380.0625)"/>
<path d="M0 0 C0.66 0 1.32 0 2 0 C3.62109375 1.6796875 3.62109375 1.6796875 5.4375 3.875 C7.58400884 6.46193722 9.16776562 8.11184374 12 10 C10.53198804 13.38907766 8.64689435 15.60119829 6.04101562 18.2019043 C5.22677124 19.01922531 4.41252686 19.83654633 3.5736084 20.67863464 C2.69338013 21.5516774 1.81315186 22.42472015 0.90625 23.32421875 C0.0037854 24.22622513 -0.8986792 25.12823151 -1.82849121 26.05757141 C-3.73604252 27.96210262 -5.64536475 29.86462027 -7.55810547 31.76391602 C-10.01130444 34.2000895 -12.45783283 36.6428303 -14.90215302 39.08790874 C-17.2340611 41.4194799 -19.57020708 43.74679144 -21.90625 46.07421875 C-22.78647827 46.9533342 -23.66670654 47.83244965 -24.5736084 48.73820496 C-25.38785278 49.54606949 -26.20209717 50.35393402 -27.04101562 51.1862793 C-28.11784607 52.25739204 -28.11784607 52.25739204 -29.21643066 53.35014343 C-31.50446674 55.46664727 -32.70789328 55.95456118 -35.8125 56.4375 C-39 56 -39 56 -41.875 53.3125 C-44.08858983 49.8619041 -44.57691152 48.92177509 -44 45 C-42.37428284 42.77973938 -42.37428284 42.77973938 -40.06860352 40.5168457 C-39.21093887 39.66278641 -38.35327423 38.80872711 -37.46961975 37.92878723 C-36.5321843 37.02029526 -35.59474884 36.11180328 -34.62890625 35.17578125 C-33.66607327 34.22481908 -32.70441351 33.27266768 -31.74388123 32.31938171 C-29.21499556 29.81522862 -26.67190567 27.32602002 -24.12512207 24.84008789 C-20.53500251 21.33045925 -16.96453454 17.80082198 -13.39183044 14.27348328 C-11.48929023 12.39520625 -9.58099144 10.5234345 -7.66932678 8.65437317 C-6.80850998 7.80977036 -5.94769318 6.96516754 -5.06079102 6.0949707 C-4.29912125 5.35060257 -3.53745148 4.60623444 -2.75270081 3.83930969 C-0.93227613 2.10894253 -0.93227613 2.10894253 0 0 Z " fill="#38474E" transform="translate(327,84)"/>
<path d="M0 0 C0.9384375 0.13277344 1.876875 0.26554687 2.84375 0.40234375 C3.7821875 0.51707031 4.720625 0.63179688 5.6875 0.75 C8.20224535 1.30842139 10.11452506 2.07276071 12.34375 3.33984375 C9.04414859 4.98964445 5.35247116 4.72242736 1.71875 4.90234375 C0.91695313 4.94552734 0.11515625 4.98871094 -0.7109375 5.03320312 C-2.6925011 5.13935832 -4.67435271 5.2401123 -6.65625 5.33984375 C-3.4129569 0.43665772 -3.4129569 0.43665772 0 0 Z " fill="#34B4EB" transform="translate(404.65625,63.66015625)"/>
</svg>
